<svg xmlns="http://www.w3.org/2000/svg" width="1920" height="1080" viewBox="0 0 1920 1080" fill="none">
  <defs>
    <linearGradient id="bg" x1="0" y1="0" x2="1" y2="1">
      <stop stop-color="#07030f"/>
      <stop offset="0.35" stop-color="#1a0b2e"/>
      <stop offset="0.7" stop-color="#2e1065"/>
      <stop offset="1" stop-color="#0a0614"/>
    </linearGradient>
    <linearGradient id="glass" x1="0" y1="0" x2="0" y2="1">
      <stop stop-color="rgba(255,255,255,0.16)"/>
      <stop offset="1" stop-color="rgba(12,12,28,0.72)"/>
    </linearGradient>
    <linearGradient id="orangeGlow" x1="0" y1="0" x2="1" y2="1">
      <stop stop-color="#fb923c"/>
      <stop offset="1" stop-color="#f97316" stop-opacity="0.2"/>
    </linearGradient>
    <linearGradient id="tealGlow" x1="0" y1="0" x2="1" y2="1">
      <stop stop-color="#2dd4bf"/>
      <stop offset="1" stop-color="#14b8a6" stop-opacity="0.15"/>
    </linearGradient>
    <linearGradient id="purpleGlow" x1="0" y1="0" x2="1" y2="1">
      <stop stop-color="#a855f7"/>
      <stop offset="1" stop-color="#6d28d9"/>
    </linearGradient>
    <radialGradient id="sunOrange" cx="0.5" cy="0.5" r="0.5">
      <stop stop-color="#fb923c" stop-opacity="0.58"/>
      <stop offset="0.55" stop-color="#fb923c" stop-opacity="0.14"/>
      <stop offset="1" stop-color="#fb923c" stop-opacity="0"/>
    </radialGradient>
    <radialGradient id="sunTeal" cx="0.5" cy="0.5" r="0.5">
      <stop stop-color="#2dd4bf" stop-opacity="0.48"/>
      <stop offset="0.6" stop-color="#2dd4bf" stop-opacity="0.1"/>
      <stop offset="1" stop-color="#2dd4bf" stop-opacity="0"/>
    </radialGradient>
    <filter id="glow" x="-50%" y="-50%" width="200%" height="200%">
      <feGaussianBlur stdDeviation="18" result="blur"/>
      <feMerge><feMergeNode in="blur"/><feMergeNode in="SourceGraphic"/></feMerge>
    </filter>
    <filter id="panelShadow" x="-20%" y="-20%" width="140%" height="140%">
      <feDropShadow dx="0" dy="24" stdDeviation="28" flood-color="#000" flood-opacity="0.45"/>
    </filter>
    <filter id="softBlur"><feGaussianBlur stdDeviation="40"/></filter>
  </defs>

  <rect width="1920" height="1080" fill="url(#bg)"/>
  <ellipse cx="1580" cy="180" rx="520" ry="380" fill="url(#sunOrange)" filter="url(#softBlur)"/>
  <ellipse cx="280" cy="900" rx="480" ry="340" fill="url(#sunTeal)" filter="url(#softBlur)"/>
  <ellipse cx="960" cy="520" rx="720" ry="520" fill="rgba(109,40,217,0.16)" filter="url(#softBlur)"/>

  <!-- MISSION CONTROL HEADER -->
  <text x="80" y="72" fill="#c4b5fd" font-family="system-ui,sans-serif" font-size="13" font-weight="800" letter-spacing="4">EXECUTIVE MISSION CONTROL</text>
  <rect x="80" y="88" width="140" height="32" rx="16" fill="rgba(34,197,94,0.18)" stroke="rgba(34,197,94,0.45)"/>
  <text x="108" y="110" fill="#4ade80" font-size="13" font-weight="900" font-family="system-ui">● LIVE</text>
  <rect x="240" y="88" width="220" height="32" rx="16" fill="rgba(251,146,60,0.14)" stroke="rgba(251,146,60,0.42)"/>
  <text x="262" y="110" fill="#fdba74" font-size="13" font-weight="900" font-family="system-ui">AI COST INTELLIGENCE</text>

  <!-- Central AI Cost Brain -->
  <g filter="url(#panelShadow)">
    <rect x="700" y="300" width="520" height="360" rx="44" fill="rgba(12,12,28,0.82)" stroke="rgba(167,139,250,0.42)" stroke-width="2"/>
    <rect x="728" y="328" width="160" height="10" rx="5" fill="url(#purpleGlow)"/>
    <text x="728" y="388" fill="#fff" font-family="system-ui,sans-serif" font-size="44" font-weight="900">AI Cost Brain</text>
    <text x="730" y="428" fill="#c4b5fd" font-family="system-ui,sans-serif" font-size="18" font-weight="700" letter-spacing="2.5">COMMAND CORE</text>
    <circle cx="960" cy="500" r="72" fill="url(#purpleGlow)" filter="url(#glow)" opacity="0.92"/>
    <circle cx="960" cy="500" r="50" fill="rgba(255,255,255,0.1)" stroke="rgba(255,255,255,0.32)" stroke-width="2"/>
    <path d="M928 484 Q960 452 992 484 Q1024 516 992 532 Q960 548 928 532 Q896 516 928 484Z" fill="rgba(255,255,255,0.2)"/>
    <circle cx="946" cy="494" r="6" fill="#2dd4bf"/>
    <circle cx="974" cy="510" r="5" fill="#fb923c"/>
  </g>

  <!-- Recovery Heatmap -->
  <g filter="url(#panelShadow)">
    <rect x="80" y="140" width="360" height="240" rx="32" fill="rgba(12,12,28,0.88)" stroke="rgba(251,146,60,0.38)" stroke-width="1.5"/>
    <ellipse cx="380" cy="160" rx="80" ry="60" fill="rgba(251,146,60,0.2)" filter="url(#softBlur)"/>
    <text x="108" y="182" fill="#fb923c" font-size="12" font-weight="800" font-family="system-ui" letter-spacing="2">RECOVERY HEATMAP</text>
    <g>
      <rect x="108" y="200" width="96" height="72" rx="14" fill="rgba(251,146,60,0.15)" stroke="rgba(251,146,60,0.35)"/>
      <text x="120" y="224" fill="#fdba74" font-size="11" font-weight="800" font-family="system-ui">LEAKAGE</text>
      <text x="120" y="256" fill="#fff" font-size="20" font-weight="900" font-family="monospace">R91K</text>
      <rect x="212" y="200" width="96" height="72" rx="14" fill="rgba(251,146,60,0.22)" stroke="rgba(251,146,60,0.45)"/>
      <text x="224" y="224" fill="#fdba74" font-size="11" font-weight="800" font-family="system-ui">RECOVERY</text>
      <text x="224" y="256" fill="#fff" font-size="20" font-weight="900" font-family="monospace">R187K</text>
      <rect x="316" y="200" width="96" height="72" rx="14" fill="rgba(45,212,191,0.12)" stroke="rgba(45,212,191,0.32)"/>
      <text x="328" y="224" fill="#5eead4" font-size="11" font-weight="800" font-family="system-ui">SAVINGS</text>
      <text x="328" y="256" fill="#fff" font-size="20" font-weight="900" font-family="monospace">R54K</text>
    </g>
    <rect x="108" y="290" width="304" height="10" rx="5" fill="rgba(255,255,255,0.08)"/>
    <rect x="108" y="290" width="228" height="10" rx="5" fill="url(#orangeGlow)"/>
    <text x="108" y="340" fill="#fff" font-size="16" font-weight="800" font-family="system-ui">Recovery pipeline · ACTIVE</text>
    <text x="108" y="364" fill="#94a3b8" font-size="13" font-weight="600" font-family="system-ui">Ranked leakage opportunities</text>
  </g>

  <!-- Supplier Risk Radar -->
  <g filter="url(#panelShadow)">
    <rect x="1480" y="120" width="360" height="250" rx="32" fill="rgba(12,12,28,0.88)" stroke="rgba(167,139,250,0.38)" stroke-width="1.5"/>
    <ellipse cx="1700" cy="140" rx="90" ry="70" fill="rgba(139,92,246,0.22)" filter="url(#softBlur)"/>
    <text x="1508" y="162" fill="#c4b5fd" font-size="12" font-weight="800" font-family="system-ui" letter-spacing="2">SUPPLIER RISK RADAR</text>
    <circle cx="1660" cy="250" r="68" fill="none" stroke="rgba(255,255,255,0.12)" stroke-width="2"/>
    <circle cx="1660" cy="250" r="44" fill="none" stroke="rgba(255,255,255,0.1)" stroke-width="1.5"/>
    <circle cx="1660" cy="250" r="20" fill="rgba(139,92,246,0.35)" stroke="rgba(167,139,250,0.5)"/>
    <line x1="1660" y1="182" x2="1660" y2="318" stroke="rgba(255,255,255,0.08)"/>
    <line x1="1592" y1="250" x2="1728" y2="250" stroke="rgba(255,255,255,0.08)"/>
    <polygon points="1660,210 1690,245 1660,280 1630,245" fill="rgba(251,146,60,0.35)" stroke="#fb923c" stroke-width="2"/>
    <rect x="1508" y="310" width="88" height="36" rx="12" fill="rgba(34,197,94,0.15)" stroke="rgba(34,197,94,0.35)"/>
    <text x="1522" y="333" fill="#4ade80" font-size="11" font-weight="900" font-family="system-ui">STABLE</text>
    <rect x="1608" y="310" width="88" height="36" rx="12" fill="rgba(251,191,36,0.15)" stroke="rgba(251,191,36,0.35)"/>
    <text x="1620" y="333" fill="#fbbf24" font-size="11" font-weight="900" font-family="system-ui">MONITOR</text>
    <rect x="1708" y="310" width="88" height="36" rx="12" fill="rgba(248,113,113,0.15)" stroke="rgba(248,113,113,0.35)"/>
    <text x="1720" y="333" fill="#f87171" font-size="11" font-weight="900" font-family="system-ui">CRITICAL</text>
  </g>

  <!-- Margin Gauge -->
  <g filter="url(#panelShadow)">
    <rect x="100" y="430" width="320" height="220" rx="32" fill="rgba(12,12,28,0.88)" stroke="rgba(34,197,94,0.32)" stroke-width="1.5"/>
    <ellipse cx="300" cy="450" rx="70" ry="55" fill="rgba(34,197,94,0.15)" filter="url(#softBlur)"/>
    <text x="128" y="468" fill="#86efac" font-size="12" font-weight="800" font-family="system-ui" letter-spacing="2">MARGIN GAUGE</text>
    <path d="M180 580 A100 100 0 0 1 340 580" fill="none" stroke="rgba(255,255,255,0.1)" stroke-width="14" stroke-linecap="round"/>
    <path d="M180 580 A100 100 0 0 1 298 510" fill="none" stroke="#22c55e" stroke-width="14" stroke-linecap="round"/>
    <text x="228" y="560" fill="#fff" font-size="32" font-weight="900" font-family="monospace">42.8%</text>
    <text x="128" y="610" fill="#94a3b8" font-size="12" font-weight="700" font-family="system-ui">GP %</text>
    <text x="210" y="610" fill="#86efac" font-size="12" font-weight="800" font-family="system-ui">Target 50%</text>
    <text x="300" y="610" fill="#f87171" font-size="12" font-weight="800" font-family="system-ui">Var -7.2%</text>
  </g>

  <!-- Profitability Widget -->
  <g filter="url(#panelShadow)">
    <rect x="1500" y="400" width="340" height="240" rx="32" fill="rgba(12,12,28,0.88)" stroke="rgba(45,212,191,0.35)" stroke-width="1.5"/>
    <ellipse cx="1720" cy="420" rx="75" ry="58" fill="rgba(45,212,191,0.18)" filter="url(#softBlur)"/>
    <text x="1528" y="442" fill="#5eead4" font-size="12" font-weight="800" font-family="system-ui" letter-spacing="2">PROFITABILITY</text>
    <rect x="1528" y="462" width="284" height="48" rx="14" fill="rgba(34,197,94,0.12)" stroke="rgba(34,197,94,0.3)"/>
    <text x="1544" y="484" fill="#86efac" font-size="11" font-weight="800" font-family="system-ui">TOP PRODUCT</text>
    <text x="1544" y="504" fill="#fff" font-size="16" font-weight="900" font-family="system-ui">Pepper Steak Pie · 73%</text>
    <rect x="1528" y="520" width="284" height="48" rx="14" fill="rgba(248,113,113,0.1)" stroke="rgba(248,113,113,0.28)"/>
    <text x="1544" y="542" fill="#fca5a5" font-size="11" font-weight="800" font-family="system-ui">BOTTOM PRODUCT</text>
    <text x="1544" y="562" fill="#fff" font-size="16" font-weight="900" font-family="system-ui">Karoo Lamb Pie · 40%</text>
    <text x="1528" y="610" fill="#c4b5fd" font-size="13" font-weight="800" font-family="system-ui">Margin Drift · ▼ 2.4% this month</text>
  </g>

  <!-- Bottom intelligence strip -->
  <g filter="url(#panelShadow)">
    <rect x="460" y="820" width="1000" height="200" rx="36" fill="rgba(12,12,28,0.85)" stroke="rgba(255,255,255,0.08)" stroke-width="1.5"/>
    <text x="492" y="862" fill="#e9d5ff" font-size="12" font-weight="800" font-family="system-ui" letter-spacing="2">INTELLIGENCE WALL</text>
    <rect x="492" y="882" width="180" height="100" rx="20" fill="rgba(251,146,60,0.1)" stroke="rgba(251,146,60,0.3)"/>
    <text x="512" y="912" fill="#fb923c" font-size="11" font-weight="800">RECOVERY</text>
    <text x="512" y="948" fill="#fff" font-size="22" font-weight="900" font-family="monospace">R187K</text>
    <rect x="692" y="882" width="180" height="100" rx="20" fill="rgba(167,139,250,0.1)" stroke="rgba(167,139,250,0.3)"/>
    <text x="712" y="912" fill="#c4b5fd" font-size="11" font-weight="800">SUPPLIER</text>
    <text x="712" y="948" fill="#f87171" font-size="20" font-weight="900" font-family="monospace">▲ 12%</text>
    <rect x="892" y="882" width="180" height="100" rx="20" fill="rgba(34,197,94,0.1)" stroke="rgba(34,197,94,0.28)"/>
    <text x="912" y="912" fill="#86efac" font-size="11" font-weight="800">MARGIN</text>
    <text x="912" y="948" fill="#fff" font-size="22" font-weight="900" font-family="monospace">42.8%</text>
    <rect x="1092" y="882" width="180" height="100" rx="20" fill="rgba(45,212,191,0.1)" stroke="rgba(45,212,191,0.28)"/>
    <text x="1112" y="912" fill="#5eead4" font-size="11" font-weight="800">INVENTORY</text>
    <text x="1112" y="948" fill="#fff" font-size="18" font-weight="900" font-family="monospace">STOCK</text>
    <rect x="1292" y="882" width="140" height="100" rx="20" fill="rgba(59,130,246,0.1)" stroke="rgba(59,130,246,0.28)"/>
    <text x="1312" y="912" fill="#93c5fd" font-size="11" font-weight="800">REVENUE</text>
    <text x="1312" y="948" fill="#fff" font-size="20" font-weight="900" font-family="monospace">R2.48M</text>
  </g>
</svg>
