<svg xmlns="http://www.w3.org/2000/svg" width="1600" height="950" viewBox="0 0 1600 950">
  <defs>
    <linearGradient id="bg" x1="0" y1="0" x2="1" y2="1">
      <stop stop-color="#140622"/>
      <stop offset="0.42" stop-color="#4c1d95"/>
      <stop offset="0.72" stop-color="#1a0b2e"/>
      <stop offset="1" stop-color="#09031f"/>
    </linearGradient>
    <linearGradient id="hot" x1="0" y1="0" x2="1" y2="1">
      <stop stop-color="#fb923c"/>
      <stop offset="0.55" stop-color="#ec4899"/>
      <stop offset="1" stop-color="#7c3aed"/>
    </linearGradient>
    <linearGradient id="cool" x1="0" y1="0" x2="1" y2="1">
      <stop stop-color="#7c3aed"/>
      <stop offset="1" stop-color="#2dd4bf"/>
    </linearGradient>
    <radialGradient id="orangeGlow" cx="50%" cy="50%" r="50%">
      <stop stop-color="#fb923c" stop-opacity="0.65"/>
      <stop offset="1" stop-color="#fb923c" stop-opacity="0"/>
    </radialGradient>
    <radialGradient id="tealGlow" cx="50%" cy="50%" r="50%">
      <stop stop-color="#2dd4bf" stop-opacity="0.45"/>
      <stop offset="1" stop-color="#2dd4bf" stop-opacity="0"/>
    </radialGradient>
    <filter id="shadow" x="-30%" y="-30%" width="160%" height="160%">
      <feDropShadow dx="0" dy="28" stdDeviation="22" flood-color="#000000" flood-opacity="0.35"/>
    </filter>
    <filter id="soft" x="-20%" y="-20%" width="140%" height="140%">
      <feGaussianBlur stdDeviation="18"/>
    </filter>
  </defs>
  <rect width="1600" height="950" rx="54" fill="url(#bg)"/>
  <circle cx="1240" cy="150" r="330" fill="url(#orangeGlow)"/>
  <circle cx="240" cy="780" r="360" fill="url(#tealGlow)"/>
  <circle cx="650" cy="90" r="220" fill="#ec4899" opacity="0.12"/>
  <circle cx="1510" cy="850" r="260" fill="#7c3aed" opacity="0.22"/>

  <g opacity="0.25">
    <path d="M90 720 C300 520 520 800 740 560 S1150 460 1490 220" stroke="#2dd4bf" stroke-width="4" fill="none"/>
    <path d="M80 250 C360 90 560 340 830 180 S1240 70 1500 200" stroke="#fb923c" stroke-width="4" fill="none"/>
    <path d="M100 840 C440 670 740 900 1080 650 S1340 570 1530 430" stroke="#ffffff" stroke-width="2" fill="none" opacity="0.25"/>
  </g>

  <g filter="url(#shadow)">
    <rect x="70" y="76" width="585" height="286" rx="44" fill="rgba(255,255,255,0.13)" stroke="rgba(255,255,255,0.24)"/>
    <rect x="110" y="122" width="205" height="18" rx="9" fill="#fb923c"/>
    <text x="110" y="205" fill="#fff" font-size="58" font-weight="900" font-family="Arial, Helvetica, sans-serif">Production Intelligence</text>
    <text x="112" y="255" fill="#2dd4bf" font-size="25" font-weight="900" font-family="Arial, Helvetica, sans-serif">Batch yield and finished goods margin</text>
    <rect x="110" y="292" width="420" height="15" rx="8" fill="rgba(255,255,255,0.23)"/>
    <rect x="110" y="320" width="300" height="15" rx="8" fill="rgba(255,255,255,0.16)"/>
  </g>

  <g filter="url(#shadow)">
    <rect x="830" y="76" width="570" height="286" rx="44" fill="rgba(255,255,255,0.12)" stroke="rgba(255,255,255,0.24)"/>
    <text x="900" y="174" fill="#fff" font-size="88" font-weight="900" font-family="Arial, Helvetica, sans-serif">BATCH</text>
    <text x="905" y="220" fill="#2dd4bf" font-size="25" font-weight="900" font-family="Arial, Helvetica, sans-serif">Decision intelligence layer</text>
    <path d="M910 282 L995 235 L1088 258 L1185 170 L1305 212" stroke="#fb923c" stroke-width="12" stroke-linecap="round" fill="none"/>
    <circle cx="1318" cy="212" r="18" fill="#2dd4bf"/>
  </g>

  
        <g transform="translate(70 400)">
          <rect width="96" height="92" rx="23" fill="rgba(255,255,255,0.13)" stroke="rgba(255,255,255,0.25)" filter="url(#shadow)"/>
          <circle cx="48" cy="30" r="17" fill="#2dd4bf" opacity="0.95"/>
          <text x="48" y="68" fill="#fff" font-size="13" font-weight="900" text-anchor="middle">Input</text>
          <path d="M102 46 L116 46" stroke="#fb923c" stroke-width="5" stroke-linecap="round"/>
        </g>
        <g transform="translate(190 400)">
          <rect width="96" height="92" rx="23" fill="rgba(255,255,255,0.13)" stroke="rgba(255,255,255,0.25)" filter="url(#shadow)"/>
          <circle cx="48" cy="30" r="17" fill="#fb923c" opacity="0.95"/>
          <text x="48" y="68" fill="#fff" font-size="13" font-weight="900" text-anchor="middle">Batch</text>
          <path d="M102 46 L116 46" stroke="#fb923c" stroke-width="5" stroke-linecap="round"/>
        </g>
        <g transform="translate(310 400)">
          <rect width="96" height="92" rx="23" fill="rgba(255,255,255,0.13)" stroke="rgba(255,255,255,0.25)" filter="url(#shadow)"/>
          <circle cx="48" cy="30" r="17" fill="#2dd4bf" opacity="0.95"/>
          <text x="48" y="68" fill="#fff" font-size="13" font-weight="900" text-anchor="middle">Yield</text>
          <path d="M102 46 L116 46" stroke="#fb923c" stroke-width="5" stroke-linecap="round"/>
        </g>
        <g transform="translate(430 400)">
          <rect width="96" height="92" rx="23" fill="rgba(255,255,255,0.13)" stroke="rgba(255,255,255,0.25)" filter="url(#shadow)"/>
          <circle cx="48" cy="30" r="17" fill="#fb923c" opacity="0.95"/>
          <text x="48" y="68" fill="#fff" font-size="13" font-weight="900" text-anchor="middle">FG</text>
          <path d="M102 46 L116 46" stroke="#fb923c" stroke-width="5" stroke-linecap="round"/>
        </g>
        <g transform="translate(550 400)">
          <rect width="96" height="92" rx="23" fill="url(#hot)" stroke="rgba(255,255,255,0.25)" filter="url(#shadow)"/>
          <circle cx="48" cy="30" r="17" fill="#2dd4bf" opacity="0.95"/>
          <text x="48" y="68" fill="#fff" font-size="13" font-weight="900" text-anchor="middle">Margin</text>
          
        </g>

  <g filter="url(#shadow)">
    <rect x="875" y="655" width="515" height="142" rx="32" fill="rgba(255,255,255,0.14)" stroke="rgba(255,255,255,0.25)"/>
    <circle cx="935" cy="726" r="34" fill="#2dd4bf" opacity="0.88"/>
    <text x="995" y="715" fill="#fff" font-size="30" font-weight="900" font-family="Arial, Helvetica, sans-serif">Profit Intelligence</text>
    <text x="995" y="760" fill="rgba(255,255,255,0.78)" font-size="22" font-weight="700" font-family="Arial, Helvetica, sans-serif">Cost · Risk · Margin · Action</text>
  </g>

  <g filter="url(#shadow)">
    <rect x="80" y="650" width="555" height="155" rx="34" fill="url(#hot)" opacity="0.95"/>
    <text x="122" y="710" fill="#fff" font-size="34" font-weight="900" font-family="Arial, Helvetica, sans-serif">Premium Cost Intelligence</text>
    <text x="122" y="760" fill="rgba(255,255,255,0.88)" font-size="23" font-weight="800" font-family="Arial, Helvetica, sans-serif">Protect margins before leakage reaches the P&amp;L.</text>
  </g>
</svg>